<svg width="15" height="15" viewBox="0 0 15 15" fill="none" xmlns="http://www.w3.org/2000/svg">
<path fill-rule="evenodd" clip-rule="evenodd" d="M13 7.5C13 10.5376 10.5376 13 7.5 13C4.46243 13 2 10.5376 2 7.5C2 4.46243 4.46243 2 7.5 2C10.5376 2 13 4.46243 13 7.5ZM15 7.5C15 11.6421 11.6421 15 7.5 15C3.35786 15 0 11.6421 0 7.5C0 3.35786 3.35786 0 7.5 0C11.6421 0 15 3.35786 15 7.5ZM11.1422 6.27017C11.5123 5.86026 11.4801 5.22791 11.0702 4.8578C10.6602 4.48768 10.0279 4.51994 9.65778 4.92986L6.78607 8.11034L5.6071 6.93137C5.21658 6.54084 4.58341 6.54084 4.19289 6.93137C3.80236 7.32189 3.80236 7.95506 4.19289 8.34558L6.04155 10.1942C6.4867 10.6394 7.21393 10.6209 7.63581 10.1536L11.1422 6.27017Z" fill="#37A59E"/>
</svg>
