<svg width="84" height="84" viewBox="0 0 84 84" fill="none" xmlns="http://www.w3.org/2000/svg">
<circle cx="42" cy="42" r="42" fill="#EAEDF3"/>
<rect x="22" y="29" width="41" height="31" rx="2" fill="#355388"/>
<path d="M46.2573 37.5H35.7427C34.7802 37.5 34 38.2802 34 39.2427V49.7573C34 50.7198 34.7802 51.5 35.7427 51.5H46.2573C47.2198 51.5 48 50.7198 48 49.7573V39.2427C48 38.2802 47.2198 37.5 46.2573 37.5ZM53.1625 38.8745L49.1667 41.6307V47.3693L53.1625 50.1219C53.9354 50.6542 55 50.1109 55 49.1812V39.8151C55 38.8891 53.9391 38.3422 53.1625 38.8745Z" fill="#F4F8FF"/>
<path d="M63.3447 47.7793L69.2204 53.6553L56.4615 66.4148L51.2227 66.9932C50.5214 67.0707 49.9289 66.4777 50.0069 65.7764L50.5898 60.5338L63.3447 47.7793V47.7793ZM72.8546 46.9045L70.0957 44.1455C69.2351 43.2848 67.8394 43.2848 66.9788 44.1455L64.3833 46.7411L70.2591 52.6171L72.8546 50.0215C73.7151 49.1604 73.7151 47.7651 72.8546 46.9045V46.9045Z" fill="#C8D3E9"/>
<path d="M57.1087 65.5312L51.4688 59.8912L63.4537 47.9062L69.0938 53.5462L57.1087 65.5312Z" fill="#FFA965" stroke="#FFA965" stroke-width="0.5"/>
<line x1="26.5" y1="26.5" x2="58.5" y2="26.5" stroke="#355388" stroke-width="2" stroke-linecap="round"/>
<line x1="30.5" y1="23" x2="55.5" y2="23" stroke="#355388" stroke-width="2" stroke-linecap="round"/>
</svg>
