<svg width="84" height="84" viewBox="0 0 84 84" fill="none" xmlns="http://www.w3.org/2000/svg">
<circle cx="42" cy="42" r="42" fill="#EAEDF3"/>
<path d="M43.3906 24C32.9584 24 24.5 32.4614 24.5 42.8906C24.5 53.3259 32.9584 61.7812 43.3906 61.7812C53.8229 61.7812 62.2812 53.3259 62.2812 42.8906C62.2812 32.4614 53.8229 24 43.3906 24ZM43.3906 32.3789C45.1575 32.3789 46.5898 33.8112 46.5898 35.5781C46.5898 37.345 45.1575 38.7773 43.3906 38.7773C41.6237 38.7773 40.1914 37.345 40.1914 35.5781C40.1914 33.8112 41.6237 32.3789 43.3906 32.3789ZM47.6562 51.7266C47.6562 52.2314 47.247 52.6406 46.7422 52.6406H40.0391C39.5343 52.6406 39.125 52.2314 39.125 51.7266V49.8984C39.125 49.3936 39.5343 48.9844 40.0391 48.9844H40.9531V44.1094H40.0391C39.5343 44.1094 39.125 43.7001 39.125 43.1953V41.3672C39.125 40.8624 39.5343 40.4531 40.0391 40.4531H44.9141C45.4189 40.4531 45.8281 40.8624 45.8281 41.3672V48.9844H46.7422C47.247 48.9844 47.6562 49.3936 47.6562 49.8984V51.7266Z" fill="#355388"/>
</svg>
