<svg width="84" height="84" viewBox="0 0 84 84" fill="none" xmlns="http://www.w3.org/2000/svg">
<circle cx="42" cy="42" r="42" fill="#EAEDF3"/>
<path d="M23.3 27C21.4802 27 20 28.4718 20 30.2812V34.6562C20 35.2605 20.4923 35.75 21.1 35.75H26.6V30.2812C26.6 28.4718 25.1198 27 23.3 27ZM37.6 55.203V51.0625H57.4V33.5625C57.4 29.9436 54.4396 27 50.8 27H27.6718C28.3696 27.9167 28.8 29.0453 28.8 30.2812V55.4375C28.8 58.0946 31.1822 60.1987 33.9391 59.7523C36.1026 59.4023 37.6 57.383 37.6 55.203ZM39.8 53.25V55.4375C39.8 59.0558 36.8396 62 33.2 62H56.3C60.5529 62 64 58.5725 64 54.3438C64 53.7395 63.5078 53.25 62.9 53.25H39.8Z" fill="#355388"/>
<line x1="36" y1="35" x2="51" y2="35" stroke="white" stroke-width="2" stroke-linecap="round"/>
<line x1="36" y1="40" x2="51" y2="40" stroke="white" stroke-width="2" stroke-linecap="round"/>
<line x1="36" y1="45" x2="51" y2="45" stroke="white" stroke-width="2" stroke-linecap="round"/>
<path d="M61.0857 33.9136L65.0862 37.9143L56.3993 46.6016L52.8325 46.9953C52.355 47.0482 51.9516 46.6444 52.0047 46.1669L52.4016 42.5975L61.0857 33.9136V33.9136ZM67.5606 33.3179L65.6822 31.4395C65.0962 30.8535 64.146 30.8535 63.56 31.4395L61.7929 33.2067L65.7934 37.2074L67.5606 35.4402C68.1465 34.8539 68.1465 33.9039 67.5606 33.3179V33.3179Z" fill="#C8D3E9"/>
<path d="M56.84 46L53 42.16L61.16 34L65 37.84L56.84 46Z" fill="#FFA965" stroke="#FFA965" stroke-width="0.5"/>
</svg>
