<svg width="84" height="84" viewBox="0 0 84 84" fill="none" xmlns="http://www.w3.org/2000/svg">
<circle cx="42" cy="42" r="42" fill="#EAEDF3"/>
<path d="M57 49.6094V26.6406C57 25.7314 56.2596 25 55.3393 25H32.6429C28.9754 25 26 27.9395 26 31.5625V53.4375C26 57.0605 28.9754 60 32.6429 60H55.3393C56.2596 60 57 59.2686 57 58.3594V57.2656C57 56.7529 56.7578 56.2881 56.3842 55.9873C56.0935 54.9346 56.0935 51.9336 56.3842 50.8809C56.7578 50.5869 57 50.1221 57 49.6094ZM34.8571 34.1602C34.8571 33.9346 35.044 33.75 35.2723 33.75H49.942C50.1703 33.75 50.3571 33.9346 50.3571 34.1602V35.5273C50.3571 35.7529 50.1703 35.9375 49.942 35.9375H35.2723C35.044 35.9375 34.8571 35.7529 34.8571 35.5273V34.1602ZM34.8571 38.5352C34.8571 38.3096 35.044 38.125 35.2723 38.125H49.942C50.1703 38.125 50.3571 38.3096 50.3571 38.5352V39.9023C50.3571 40.1279 50.1703 40.3125 49.942 40.3125H35.2723C35.044 40.3125 34.8571 40.1279 34.8571 39.9023V38.5352ZM52.3915 55.625H32.6429C31.4181 55.625 30.4286 54.6475 30.4286 53.4375C30.4286 52.2344 31.425 51.25 32.6429 51.25H52.3915C52.26 52.4189 52.26 54.4561 52.3915 55.625Z" fill="#355388"/>
<rect x="33" y="32" width="18" height="11" fill="#355388"/>
<path d="M34 39V25H41V39L37.5 36.2L34 39Z" fill="#FFA965"/>
</svg>
