<svg width="84" height="84" viewBox="0 0 84 84" fill="none" xmlns="http://www.w3.org/2000/svg">
<circle cx="42" cy="42" r="42" fill="#EAEDF3"/>
<path d="M62.5 43C62.5 54.0481 53.5449 63 42.5 63C31.4551 63 22.5 54.0481 22.5 43C22.5 31.9583 31.4551 23 42.5 23C53.5449 23 62.5 31.9583 62.5 43ZM43.0367 29.6129C38.6418 29.6129 35.8387 31.4643 33.6376 34.7547C33.3524 35.181 33.4478 35.7559 33.8565 36.0658L36.6548 38.1876C37.0746 38.5059 37.6727 38.4302 37.9988 38.0165C39.4394 36.1892 40.4273 35.1296 42.62 35.1296C44.2675 35.1296 46.3053 36.1899 46.3053 37.7875C46.3053 38.9952 45.3083 39.6155 43.6816 40.5275C41.7845 41.591 39.2742 42.9146 39.2742 46.2258V46.5484C39.2742 47.0828 39.7075 47.5161 40.2419 47.5161H44.7581C45.2925 47.5161 45.7258 47.0828 45.7258 46.5484V46.4409C45.7258 44.1456 52.4344 44.05 52.4344 37.8387C52.4344 33.1611 47.5823 29.6129 43.0367 29.6129V29.6129ZM42.5 49.6129C40.4544 49.6129 38.7903 51.277 38.7903 53.3226C38.7903 55.3681 40.4544 57.0323 42.5 57.0323C44.5456 57.0323 46.2097 55.3681 46.2097 53.3226C46.2097 51.277 44.5456 49.6129 42.5 49.6129Z" fill="#355388"/>
</svg>
