<svg width="84" height="84" viewBox="0 0 84 84" fill="none" xmlns="http://www.w3.org/2000/svg">
<circle cx="42" cy="42" r="42" fill="#EAEDF3"/>
<rect x="25" y="22" width="35" height="40" rx="3" fill="white"/>
<line x1="32" y1="44" x2="53" y2="44" stroke="#C8D3E9" stroke-width="2" stroke-linecap="round"/>
<line x1="32" y1="32" x2="53" y2="32" stroke="#C8D3E9" stroke-width="2" stroke-linecap="round"/>
<line x1="32" y1="38" x2="53" y2="38" stroke="#C8D3E9" stroke-width="2" stroke-linecap="round"/>
<path d="M31 54.5L36.5 50V54.5L40 53V54.5H46.5" stroke="#FFA965" stroke-width="2" stroke-linecap="round"/>
<path d="M49.1062 50.1054L56.3062 47.1364C56.5256 47.0463 56.7607 47 56.9981 47C57.2356 47 57.4707 47.0463 57.69 47.1364L64.89 50.1054C65.5612 50.3801 66 51.0295 66 51.7495C66 59.1165 61.7062 64.2084 57.6937 65.8636C57.2512 66.0455 56.7525 66.0455 56.31 65.8636C53.0962 64.5387 48 59.9626 48 51.7495C48 51.0295 48.4387 50.3801 49.1062 50.1054ZM56.9962 63.5626L57 49.4226L50.4037 52.1429C50.5275 57.7618 53.4825 61.8331 56.9962 63.5626V63.5626Z" fill="white"/>
<path d="M64.8938 50.1054L57.6938 47.1364C57.4744 47.0463 57.2393 47 57.0019 47C56.7644 47 56.5293 47.0463 56.31 47.1364L49.11 50.1054C48.4388 50.3801 48 51.0295 48 51.7495C48 59.1165 52.2938 64.2084 56.3063 65.8636C56.7488 66.0455 57.2475 66.0455 57.69 65.8636C60.9038 64.5387 66 59.9626 66 51.7495C66 51.0295 65.5613 50.3801 64.8938 50.1054ZM57.0038 63.5626L57 49.4226L63.5963 52.1429C63.4725 57.7618 60.5175 61.8331 57.0038 63.5626V63.5626Z" fill="#355388"/>
</svg>
