<svg width="84" height="84" viewBox="0 0 84 84" fill="none" xmlns="http://www.w3.org/2000/svg">
<circle cx="42" cy="42" r="42" fill="#EAEDF3"/>
<rect x="17" y="24" width="49" height="36" rx="5" fill="white"/>
<path d="M17 29C17 26.2386 19.2386 24 22 24H61C63.7614 24 66 26.2386 66 29V31H17V29Z" fill="#355388"/>
<rect x="21" y="34" width="14" height="23" fill="#E7ECF5"/>
<line x1="40" y1="36" x2="61" y2="36" stroke="#C8D3E9" stroke-width="2" stroke-linecap="round"/>
<line x1="40" y1="48" x2="61" y2="48" stroke="#C8D3E9" stroke-width="2" stroke-linecap="round"/>
<line x1="40" y1="42" x2="61" y2="42" stroke="#C8D3E9" stroke-width="2" stroke-linecap="round"/>
<rect x="39" y="53" width="23" height="3" rx="1.5" fill="#FFAA69"/>
<path d="M71.3212 56.6823L70.0651 55.9879C70.1919 55.3331 70.1919 54.6613 70.0651 54.0065L71.3212 53.3121C71.4657 53.2331 71.5305 53.0694 71.4833 52.9169C71.1561 51.9121 70.5988 51.0032 69.8705 50.2468C69.7585 50.1311 69.5757 50.1028 69.4342 50.1819L68.1781 50.8762C67.6503 50.4415 67.0429 50.1057 66.3854 49.8855V48.4996C66.3854 48.3416 66.2704 48.2033 66.1083 48.1694C65.0262 47.9379 63.9175 47.9492 62.8885 48.1694C62.7264 48.2033 62.6114 48.3416 62.6114 48.4996V49.8883C61.9568 50.1113 61.3494 50.4472 60.8187 50.879L59.5656 50.1847C59.4211 50.1057 59.2413 50.1311 59.1292 50.2496C58.4009 51.0032 57.8437 51.9121 57.5164 52.9198C57.4663 53.0722 57.5341 53.2359 57.6786 53.3149L58.9346 54.0093C58.8078 54.6641 58.8078 55.3359 58.9346 55.9907L57.6786 56.6851C57.5341 56.7641 57.4692 56.9278 57.5164 57.0802C57.8437 58.0851 58.4009 58.9939 59.1292 59.7504C59.2413 59.8661 59.4241 59.8943 59.5656 59.8153L60.8216 59.121C61.3494 59.5556 61.9568 59.8915 62.6143 60.1117V61.5004C62.6143 61.6584 62.7293 61.7967 62.8915 61.8306C63.9736 62.0621 65.0822 62.0508 66.1112 61.8306C66.2734 61.7967 66.3884 61.6584 66.3884 61.5004V60.1117C67.0429 59.8887 67.6503 59.5528 68.181 59.121L69.4371 59.8153C69.5816 59.8943 69.7614 59.8689 69.8735 59.7504C70.6018 58.9968 71.159 58.0879 71.4863 57.0802C71.5305 56.925 71.4657 56.7613 71.3212 56.6823ZM64.4984 57.2552C63.1981 57.2552 62.1396 56.2419 62.1396 54.9972C62.1396 53.7524 63.1981 52.7391 64.4984 52.7391C65.7987 52.7391 66.8572 53.7524 66.8572 54.9972C66.8572 56.2419 65.7987 57.2552 64.4984 57.2552Z" fill="#355388"/>
</svg>
