<svg width="84" height="84" viewBox="0 0 84 84" fill="none" xmlns="http://www.w3.org/2000/svg">
<circle cx="42" cy="42" r="42" fill="#EAEDF3"/>
<path d="M56.1296 46.225L53.5278 44.6875C53.7904 43.2375 53.7904 41.75 53.5278 40.3L56.1296 38.7625C56.4289 38.5875 56.5632 38.225 56.4655 37.8875C55.7876 35.6625 54.6332 33.65 53.1247 31.975C52.8926 31.7188 52.5139 31.6563 52.2207 31.8313L49.6189 33.3688C48.5257 32.4063 47.2675 31.6625 45.9055 31.175V28.1063C45.9055 27.7563 45.6673 27.4501 45.3314 27.3751C43.0899 26.8626 40.7935 26.8876 38.662 27.3751C38.326 27.4501 38.0878 27.7563 38.0878 28.1063V31.1813C36.732 31.675 35.4738 32.4188 34.3744 33.375L31.7787 31.8375C31.4795 31.6625 31.1069 31.7188 30.8748 31.9813C29.3662 33.65 28.2119 35.6625 27.534 37.8938C27.4301 38.2313 27.5706 38.5938 27.8699 38.7688L30.4717 40.3063C30.2091 41.7563 30.2091 43.2437 30.4717 44.6937L27.8699 46.2312C27.5706 46.4062 27.4362 46.7687 27.534 47.1062C28.2119 49.3312 29.3662 51.3437 30.8748 53.0187C31.1069 53.275 31.4856 53.3375 31.7787 53.1625L34.3805 51.625C35.4738 52.5875 36.732 53.3312 38.0939 53.8187V56.8937C38.0939 57.2437 38.3321 57.5499 38.6681 57.6249C40.9095 58.1374 43.206 58.1124 45.3375 57.6249C45.6734 57.5499 45.9116 57.2437 45.9116 56.8937V53.8187C47.2675 53.325 48.5257 52.5812 49.625 51.625L52.2269 53.1625C52.5261 53.3375 52.8987 53.2812 53.1308 53.0187C54.6393 51.35 55.7937 49.3375 56.4716 47.1062C56.5632 46.7625 56.4289 46.4 56.1296 46.225V46.225ZM41.9967 47.4937C39.3032 47.4937 37.1106 45.25 37.1106 42.4937C37.1106 39.7375 39.3032 37.4938 41.9967 37.4938C44.6901 37.4938 46.8827 39.7375 46.8827 42.4937C46.8827 45.25 44.6901 47.4937 41.9967 47.4937Z" fill="#355388"/>
<path d="M64 42C64 54.1503 54.1503 64 42 64M20 42C20 29.8497 29.8497 20 42 20" stroke="#B6C2DB" stroke-width="2" stroke-linecap="round"/>
<path d="M59.4085 55.4515C51.9794 65.0659 38.1629 66.8375 28.5484 59.4085M24.5914 28.5484C32.0205 18.9339 45.837 17.1623 55.4515 24.5914" stroke="#B6C2DB" stroke-width="2" stroke-linecap="round"/>
<circle cx="63.5" cy="36.5" r="2" fill="#FFA969"/>
<circle cx="20.5" cy="48" r="2" fill="#FFA969"/>
</svg>
