<svg width="84" height="84" viewBox="0 0 84 84" fill="none" xmlns="http://www.w3.org/2000/svg">
<circle cx="42" cy="42" r="42" fill="#EAEDF3"/>
<rect x="44.5702" y="35.4468" width="4.55385" height="12.5053" transform="rotate(41.7606 44.5702 35.4468)" fill="#CED5E6"/>
<path d="M33.1401 44.4976C33.8722 43.6705 35.1362 43.5935 35.9633 44.3256L40.1496 48.031C40.9767 48.7631 41.0538 50.0271 40.3217 50.8542L29.5071 63.0722C28.775 63.8993 27.5111 63.9763 26.6839 63.2442L22.4976 59.5388C21.6705 58.8067 21.5935 57.5427 22.3256 56.7156L33.1401 44.4976Z" fill="#355388"/>
<path d="M58.8442 37.8072C55.2538 41.6861 49.1986 41.9201 45.3196 38.3296C41.4406 34.7392 41.2067 28.684 44.7971 24.805C47.0176 22.4061 50.1809 21.4013 53.189 21.8331C54.0152 22.598 49.1038 29.5616 49.1038 29.5616C49.1038 29.5616 51.4367 31.7209 53.6485 33.7682C56.3867 32.4674 60.969 28.3567 61.1599 29.2109C61.8225 32.1768 61.0647 35.4082 58.8442 37.8072Z" fill="#CED5E6"/>
<path d="M37.2766 38.8298L45.4468 47L48 44.4468L39.8298 36.2766V30.6596L29.1064 23L24 28.1064L32.1702 38.8298H37.2766Z" fill="#CED5E5"/>
<path d="M46.3233 53.07C44.2118 50.9031 44.2566 47.4347 46.4235 45.3232V45.3232C48.5904 43.2116 52.0588 43.2565 54.1704 45.4234L63.8 55.3055C64.543 56.068 64.5272 57.2884 63.7648 58.0314L58.6788 62.9874C57.9164 63.7304 56.696 63.7146 55.953 62.9521L46.3233 53.07Z" fill="#FFA965"/>
</svg>
