<svg width="84" height="84" viewBox="0 0 84 84" fill="none" xmlns="http://www.w3.org/2000/svg">
<circle cx="42" cy="42" r="42" fill="#EAEDF3"/>
<path d="M39.3535 62.962L34.6836 61.6137C34.1936 61.4765 33.918 60.9662 34.0558 60.4786L44.5058 24.6599C44.6436 24.1724 45.1565 23.8981 45.6465 24.0353L50.3164 25.3836C50.8064 25.5207 51.082 26.0311 50.9442 26.5186L40.4942 62.3374C40.3488 62.8249 39.8435 63.1068 39.3535 62.962V62.962ZM30.6261 54.4149L33.9563 50.8802C34.3085 50.507 34.2855 49.9128 33.895 49.57L26.959 43.4986L33.895 37.4273C34.2855 37.0845 34.3161 36.4903 33.9563 36.117L30.6261 32.5824C30.2816 32.2167 29.6997 32.1939 29.3246 32.5443L18.2928 42.8283C17.9024 43.1863 17.9024 43.8033 18.2928 44.1614L29.3246 54.453C29.6997 54.8034 30.2816 54.7882 30.6261 54.4149V54.4149ZM55.6754 54.4606L66.7072 44.169C67.0976 43.811 67.0976 43.1939 66.7072 42.8359L55.6754 32.5367C55.3079 32.1939 54.7261 32.2091 54.3739 32.5748L51.0437 36.1094C50.6915 36.4827 50.7145 37.0769 51.105 37.4197L58.041 43.4986L51.105 49.57C50.7145 49.9128 50.6839 50.507 51.0437 50.8802L54.3739 54.4149C54.7184 54.7882 55.3002 54.8034 55.6754 54.4606V54.4606Z" fill="#355388"/>
</svg>
