<svg width="84" height="84" viewBox="0 0 84 84" fill="none" xmlns="http://www.w3.org/2000/svg">
<circle cx="41.9998" cy="42.0002" r="42" fill="#EAEDF3"/>
<rect x="30.745" y="43.2939" width="17.1661" height="6.25969" rx="3.12984" transform="rotate(45.5019 30.745 43.2939)" fill="#FFA965"/>
<path d="M58.9974 22.6175C61.2491 22.7837 63.0017 24.6301 63.1017 26.8858C63.7121 40.6552 58.4084 47.7573 43.1358 56.8228C41.9603 57.5206 40.4577 57.3126 39.502 56.3352L29.1608 45.759C28.1407 44.7157 28.0216 43.0839 28.8792 41.9033C38.3158 28.9121 44.633 21.5574 58.9974 22.6175Z" fill="#FAFAFA"/>
<path d="M28.3059 43.6709L35.8469 33.6525C30.7311 32.4803 25.3827 34.3042 22.0927 38.3933C20.6641 40.1689 19.5709 41.5492 19.5321 41.6604C19.4461 41.9066 25.3455 43.1033 28.3059 43.6709Z" fill="#355388"/>
<path d="M42.0223 57.4811L52.3492 50.5C53.2548 55.6381 51.1741 60.856 46.9483 63.9159C45.1134 65.2446 43.6879 66.2603 43.5756 66.2932C43.3267 66.3662 42.4364 60.4488 42.0223 57.4811Z" fill="#355388"/>
<circle cx="49.2564" cy="36.2564" r="5.25639" fill="#DCDFE4"/>
<line x1="1" y1="-1" x2="6.17729" y2="-1" transform="matrix(-0.679172 0.733979 -0.502579 -0.864531 28.3746 52)" stroke="#355388" stroke-width="2" stroke-linecap="round"/>
<line x1="1" y1="-1" x2="6.17729" y2="-1" transform="matrix(-0.679172 0.733979 -0.502579 -0.864531 32.3746 57.5)" stroke="#355388" stroke-width="2" stroke-linecap="round"/>
<line x1="1" y1="-1" x2="7.20261" y2="-1" transform="matrix(-0.679172 0.733979 -0.502579 -0.864531 29.071 56)" stroke="#355388" stroke-width="2" stroke-linecap="round"/>
</svg>
